<svg width="17" height="18" viewBox="0 0 17 18" fill="none" xmlns="http://www.w3.org/2000/svg">
<path fill-rule="evenodd" clip-rule="evenodd" d="M16.3599 1.94072C16.0338 1.61604 15.6134 1.40274 15.1588 1.33129C14.7042 1.25984 14.2386 1.33391 13.8286 1.5429C13.8054 1.5098 13.5885 1.2704 13.5033 1.1845C13.0973 0.779429 12.5472 0.551941 11.9736 0.551941C11.4001 0.551941 10.85 0.779429 10.444 1.1845L6.59248 5.03599C6.46048 5.16803 6.38632 5.3471 6.38632 5.5338C6.38632 5.72051 6.46048 5.89957 6.59248 6.03161C6.72559 6.16158 6.90425 6.23433 7.09028 6.23433C7.27632 6.23433 7.45498 6.16158 7.58809 6.03161L11.4396 2.18012C11.5813 2.03853 11.7734 1.95899 11.9736 1.95899C12.1739 1.95899 12.366 2.03853 12.5077 2.18012L12.7654 2.43853L11.1988 4.00447C11.1304 4.07309 11.092 4.16601 11.092 4.26288C11.092 4.35975 11.1304 4.45266 11.1988 4.52129L13.78 7.09904C13.8484 7.16732 13.9411 7.20567 14.0378 7.20567C14.1344 7.20567 14.2271 7.16732 14.2955 7.09904L16.3599 5.03459C16.7698 4.62413 17.0001 4.06775 17.0001 3.48765C17.0001 2.90755 16.7698 2.35117 16.3599 1.94072ZM10.4243 5.29504C10.3558 5.22672 10.263 5.18835 10.1663 5.18835C10.0695 5.18835 9.9767 5.22672 9.9082 5.29504L4.11547 11.0892C4.01362 11.1908 3.93282 11.3115 3.87768 11.4444C3.82255 11.5773 3.79417 11.7198 3.79417 11.8637C3.79417 12.0076 3.82255 12.1501 3.87768 12.283C3.93282 12.4159 4.01362 12.5366 4.11547 12.6382L5.66451 14.1873C5.76615 14.2891 5.88687 14.3699 6.01978 14.4251C6.15268 14.4802 6.29515 14.5086 6.43904 14.5086C6.58292 14.5086 6.72539 14.4802 6.8583 14.4251C6.9912 14.3699 7.11193 14.2891 7.21356 14.1873L13.007 8.39384C13.0753 8.32533 13.1137 8.23253 13.1137 8.13578C13.1137 8.03903 13.0753 7.94623 13.007 7.87773L10.4243 5.29504ZM2.81773 12.9673C2.87463 12.9839 2.92642 13.0146 2.9683 13.0566L5.39114 15.4801C5.43309 15.522 5.46379 15.5738 5.48039 15.6307C5.49699 15.6876 5.49896 15.7478 5.48611 15.8056C5.47326 15.8635 5.44601 15.9172 5.40688 15.9617C5.36776 16.0062 5.31802 16.0402 5.26229 16.0603L1.46995 17.4291C1.4068 17.4509 1.33883 17.4546 1.27367 17.44C1.20851 17.4253 1.14872 17.3928 1.10099 17.346C1.05373 17.2988 1.02088 17.2391 1.00629 17.1739C0.991707 17.1087 0.995978 17.0407 1.01861 16.9778L2.38811 13.1854C2.40829 13.1297 2.44221 13.08 2.48674 13.0409C2.53126 13.0017 2.58494 12.9745 2.6428 12.9616C2.70066 12.9488 2.76083 12.9507 2.81773 12.9673Z" fill="#6E41E2"/>
</svg>
