<svg width="24" height="14" viewBox="0 0 24 14" fill="none" xmlns="http://www.w3.org/2000/svg">
<path d="M23.4511 0.941818C23.6196 0.407272 23.4512 0 22.6479 0H20.0307C19.3569 0 19.0589 0.343637 18.8905 0.725455C18.8905 0.725455 17.556 3.92 15.6643 6.00727C15.0424 6.60545 14.7703 6.79636 14.4335 6.79636C14.265 6.79636 13.993 6.60545 13.993 6.05818V0.941818C13.993 0.292727 13.8375 0 13.2803 0H9.14725C8.73264 0 8.48647 0.305454 8.48647 0.598182C8.48647 1.20909 9.4582 1.36182 9.52298 3.10545V6.89818C9.52298 7.73818 9.3675 7.89091 9.04359 7.89091C8.16256 7.89091 5.98587 4.67091 4.70319 1.00545C4.44406 0.292727 4.19789 0 3.52415 0H0.893994C0.155477 0 0 0.343637 0 0.725455C0 1.41273 0.893994 4.79818 4.14606 9.27818C6.30978 12.3455 9.3675 14 12.1531 14C13.8245 14 14.0318 13.6309 14.0318 12.9945V10.6782C14.0318 9.95273 14.1873 9.8 14.7185 9.8C15.1072 9.8 15.768 9.99091 17.3228 11.4545C19.1107 13.2109 19.3958 14 20.4064 14H23.0236C23.7751 14 24.1508 13.6309 23.9435 12.9055C23.7103 12.18 22.8552 11.1236 21.7279 9.87636C21.119 9.17636 20.1991 8.41273 19.914 8.01818C19.5254 7.53455 19.642 7.31818 19.914 6.87273C19.914 6.87273 23.1143 2.45636 23.4511 0.941818Z" fill="#627DA1"/>
</svg>
