<svg width="20" height="20" viewBox="0 0 20 20" fill="none" xmlns="http://www.w3.org/2000/svg">
<path d="M4.43249 12.0853L3.73631 14.6842L1.19178 14.738C0.431335 13.3276 0 11.7139 0 9.99909C0 8.34088 0.403287 6.77716 1.11814 5.40027H1.11869L3.38403 5.81557L4.37639 8.06725C4.16869 8.67274 4.05549 9.32273 4.05549 9.99909C4.05557 10.7331 4.18854 11.4364 4.43249 12.0853Z" fill="#FBBB00"/>
<path d="M19.8253 8.13129C19.9401 8.7362 20 9.36091 20 9.99938C20 10.7153 19.9248 11.4136 19.7814 12.0873C19.2945 14.3795 18.0225 16.3811 16.2604 17.7976L16.2599 17.797L13.4066 17.6515L13.0027 15.1306C14.172 14.4449 15.0857 13.3719 15.5671 12.0873H10.2197V8.13129H15.6451H19.8253Z" fill="#518EF8"/>
<path d="M16.2598 17.7978L16.2603 17.7984C14.5466 19.1758 12.3696 20 9.99978 20C6.19148 20 2.88045 17.8715 1.19141 14.7391L4.43212 12.0864C5.27662 14.3402 7.45083 15.9446 9.99978 15.9446C11.0954 15.9446 12.1218 15.6484 13.0026 15.1314L16.2598 17.7978Z" fill="#28B446"/>
<path d="M16.3835 2.30214L13.1439 4.95428C12.2323 4.38452 11.1548 4.05539 10.0004 4.05539C7.39377 4.05539 5.1789 5.73337 4.3767 8.06797L1.11896 5.40099H1.11841C2.78273 2.19226 6.13551 0 10.0004 0C12.4268 0 14.6516 0.86428 16.3835 2.30214Z" fill="#F14336"/>
</svg>
