<svg width="12" height="12" viewBox="0 0 12 12" fill="none" xmlns="http://www.w3.org/2000/svg">
<path fill-rule="evenodd" clip-rule="evenodd" d="M0.335019 10.0462C-0.111917 10.4931 -0.111917 11.2177 0.335019 11.6647C0.781956 12.1116 1.50658 12.1116 1.95352 11.6647L5.99986 7.61833L10.0464 11.6648C10.4933 12.1118 11.2179 12.1118 11.6649 11.6648C12.1118 11.2179 12.1118 10.4933 11.6649 10.0463L7.61836 5.99983L11.6645 1.95367C12.1115 1.50673 12.1115 0.782107 11.6645 0.335172C11.2176 -0.111764 10.493 -0.111765 10.046 0.335171L5.99986 4.38133L1.95385 0.335325C1.50691 -0.111611 0.782287 -0.11161 0.33535 0.335326C-0.111586 0.782261 -0.111586 1.50689 0.33535 1.95382L4.38136 5.99983L0.335019 10.0462Z" fill="#111111" fill-opacity="0.48"/>
</svg>
