<svg width="18" height="18" viewBox="0 0 18 18" fill="none" xmlns="http://www.w3.org/2000/svg">
<path fill-rule="evenodd" clip-rule="evenodd" d="M0.502559 15.0692C-0.167845 15.7396 -0.167845 16.8265 0.502559 17.4969C1.17296 18.1673 2.2599 18.1673 2.93031 17.4969L8.99994 11.4273L15.0699 17.4972C15.7403 18.1676 16.8272 18.1676 17.4976 17.4972C18.168 16.8268 18.168 15.7399 17.4976 15.0695L11.4277 8.99954L17.4968 2.93043C18.1672 2.26002 18.1672 1.17309 17.4968 0.502681C16.8264 -0.167723 15.7395 -0.167723 15.0691 0.502681L8.99994 6.57179L2.93113 0.502989C2.26072 -0.167415 1.17378 -0.167415 0.503377 0.502989C-0.167027 1.17339 -0.167028 2.26033 0.503377 2.93074L6.57219 8.99954L0.502559 15.0692Z" fill="#111111"/>
</svg>
