<svg width="20" height="14" viewBox="0 0 20 14" fill="none" xmlns="http://www.w3.org/2000/svg">
<path d="M18.8422 1.49256C18.7992 1.24418 18.6779 1.01606 18.4959 0.841561C18.314 0.66706 18.0811 0.55532 17.8311 0.522673C12.6324 -0.174224 7.36386 -0.174224 2.16512 0.522673C1.91522 0.555158 1.68228 0.666746 1.50035 0.841116C1.31842 1.01549 1.19706 1.24349 1.15401 1.49178C0.49912 5.13447 0.49912 8.86475 1.15401 12.5074C1.19702 12.7558 1.31836 12.9839 1.50028 13.1584C1.68219 13.3329 1.91516 13.4447 2.16512 13.4773C4.76211 13.8255 7.37943 14.0001 9.99966 14C12.6194 14 15.2362 13.8254 17.8327 13.4773C18.0827 13.4448 18.3157 13.3331 18.4976 13.1586C18.6796 12.984 18.8009 12.7559 18.8438 12.5074C19.4977 8.86489 19.4972 5.13493 18.8422 1.49256ZM6.88856 9.34889V4.65189C6.89533 4.51533 6.9366 4.38271 7.00853 4.26643C7.08045 4.15015 7.18068 4.054 7.29984 3.98696C7.41901 3.91992 7.55322 3.88418 7.68994 3.88308C7.82667 3.88198 7.96144 3.91556 8.08167 3.98067L12.6861 6.32878C12.8127 6.38944 12.9195 6.48464 12.9943 6.6034C13.0691 6.72217 13.1087 6.85965 13.1087 7C13.1087 7.14034 13.0691 7.27783 12.9943 7.3966C12.9195 7.51536 12.8127 7.61056 12.6861 7.67122L8.08167 10.0193C7.96149 10.0844 7.82679 10.118 7.69013 10.1169C7.55346 10.1159 7.4193 10.0802 7.30015 10.0133C7.18101 9.9463 7.08077 9.85026 7.00879 9.73408C6.93682 9.6179 6.89545 9.48538 6.88856 9.34889Z" fill="#6E41E2"/>
</svg>
